<?xml version="1.0" encoding="utf-8"?>
<!-- Generator: Adobe Illustrator 25.4.1, SVG Export Plug-In . SVG Version: 6.00 Build 0)  -->
<svg version="1.1" id="Layer_1" xmlns="http://www.w3.org/2000/svg" xmlns:xlink="http://www.w3.org/1999/xlink" x="0px" y="0px"
	 viewBox="0 0 240 240" style="enable-background:new 0 0 240 240;" xml:space="preserve">
<path d="M220,55.5v128.9c0,6.4-4,12-9.9,14.1L166,219.2l4-54.2V75l-4-54.2l44.1,20.7C216,43.5,220,49.2,220,55.5z"/>
<path d="M45,169.5L170,75V26.8c0-6-7.4-8.8-11.4-4.3L23.3,146.2c-4.5,4.1-4.2,11.3,0.5,15.2c0,0,6.6,6.2,9,7.9
	C36.5,171.8,41.4,172.1,45,169.5z"/>
<path d="M45,70.5L170,165v48.2c0,6-7.4,8.8-11.4,4.3L23.3,93.8c-4.5-4.2-4.2-11.3,0.5-15.2c0,0,6.6-6.2,9-7.9
	C36.5,68.2,41.4,67.8,45,70.5z"/>
</svg>
